<svg width="335" height="310" viewBox="0 0 335 310" fill="none" xmlns="http://www.w3.org/2000/svg">
<rect x="67.5" width="200" height="200" rx="100" fill="#0078D7"/>
<path d="M130 50H117.5V37.5H217.5V50H205V62.5C205 72.5938 199.9 80.7188 193.475 87.3563C189.081 91.8938 183.737 96.075 178.319 100C183.737 103.925 189.081 108.106 193.475 112.644C199.9 119.281 205 127.406 205 137.5V150H217.5V162.5H117.5V150H130V137.5C130 127.406 135.1 119.281 141.525 112.644C145.919 108.106 151.263 103.925 156.681 100C151.263 96.075 145.919 91.8938 141.525 87.3563C135.1 80.7188 130 72.5938 130 62.5V50ZM142.5 50V62.5C142.5 66.7813 144.125 70.8437 147.319 75H187.681C190.869 70.8437 192.5 66.7813 192.5 62.5V50H142.5ZM167.5 107.638C160.969 112.25 155.05 116.644 150.506 121.337C149.377 122.498 148.313 123.721 147.319 125H187.681C186.687 123.721 185.623 122.498 184.494 121.337C179.95 116.644 174.031 112.25 167.5 107.638Z" fill="white"/>
<path d="M60.8263 220.22V247.31H57.8563V220.22H60.8263ZM52.5463 220.82H55.4563V245.96H52.5463V233.06H49.3363V230.33H52.5463V220.82ZM48.0763 237.95C48.5163 237.91 48.9463 237.87 49.3663 237.83C49.7863 237.77 50.1963 237.71 50.5963 237.65L50.8063 239.9C49.7463 240.1 48.6163 240.27 47.4163 240.41C46.2363 240.53 45.0563 240.63 43.8763 240.71C42.7163 240.77 41.5863 240.81 40.4863 240.83C39.4063 240.85 38.4363 240.86 37.5763 240.86L37.2163 238.31H39.7063V225.98H37.7563V223.49H50.0863V225.98H48.0763V237.95ZM42.5263 238.25C42.9863 238.23 43.4363 238.22 43.8763 238.22C44.3363 238.2 44.7963 238.17 45.2563 238.13V225.98H42.5263V238.25ZM87.404 220.19V247.37H84.284V220.19H87.404ZM72.974 222.2C73.994 222.2 74.924 222.43 75.764 222.89C76.624 223.33 77.364 223.97 77.984 224.81C78.604 225.63 79.084 226.63 79.424 227.81C79.784 228.97 79.964 230.28 79.964 231.74C79.964 233.2 79.784 234.53 79.424 235.73C79.084 236.91 78.604 237.91 77.984 238.73C77.364 239.55 76.624 240.19 75.764 240.65C74.924 241.09 73.994 241.31 72.974 241.31C71.974 241.31 71.044 241.09 70.184 240.65C69.344 240.19 68.614 239.55 67.994 238.73C67.374 237.91 66.884 236.91 66.524 235.73C66.184 234.53 66.014 233.2 66.014 231.74C66.014 230.28 66.184 228.97 66.524 227.81C66.884 226.63 67.374 225.63 67.994 224.81C68.614 223.97 69.344 223.33 70.184 222.89C71.044 222.43 71.974 222.2 72.974 222.2ZM72.974 224.99C71.774 224.99 70.804 225.59 70.064 226.79C69.344 227.97 68.984 229.62 68.984 231.74C68.984 233.92 69.344 235.6 70.064 236.78C70.804 237.96 71.774 238.55 72.974 238.55C74.174 238.55 75.144 237.96 75.884 236.78C76.624 235.6 76.994 233.92 76.994 231.74C76.994 229.62 76.624 227.97 75.884 226.79C75.144 225.59 74.174 224.99 72.974 224.99ZM115.002 220.22V247.31H111.882V220.22H115.002ZM102.702 228.05C102.702 229.19 102.862 230.32 103.182 231.44C103.522 232.54 104.002 233.58 104.622 234.56C105.242 235.52 105.982 236.39 106.842 237.17C107.702 237.95 108.662 238.57 109.722 239.03L108.012 241.46C106.432 240.76 105.052 239.72 103.872 238.34C102.712 236.96 101.812 235.39 101.172 233.63C100.872 234.57 100.492 235.47 100.032 236.33C99.5916 237.19 99.0816 237.99 98.5016 238.73C97.9216 239.47 97.2816 240.13 96.5816 240.71C95.9016 241.29 95.1616 241.77 94.3616 242.15L92.5916 239.69C93.6516 239.21 94.6016 238.55 95.4416 237.71C96.3016 236.87 97.0416 235.93 97.6616 234.89C98.2816 233.83 98.7516 232.71 99.0716 231.53C99.4116 230.35 99.5816 229.19 99.5816 228.05V225.47H93.5516V222.92H108.732V225.47H102.702V228.05ZM128.308 229.85C129.588 229.69 130.758 229.43 131.818 229.07C132.878 228.69 133.788 228.24 134.548 227.72C135.328 227.2 135.938 226.62 136.378 225.98C136.838 225.34 137.098 224.67 137.158 223.97H129.268V221.48H149.278V223.97H141.328C141.388 224.67 141.648 225.34 142.108 225.98C142.568 226.62 143.188 227.2 143.968 227.72C144.748 228.24 145.668 228.69 146.728 229.07C147.788 229.43 148.948 229.69 150.208 229.85L149.068 232.31C146.708 232.01 144.658 231.35 142.918 230.33C141.198 229.31 139.968 228.05 139.228 226.55C138.508 228.05 137.288 229.31 135.568 230.33C133.848 231.35 131.818 232.01 129.478 232.31L128.308 229.85ZM151.558 233.96V236.45H141.058V241.55H137.968V236.45H126.988V233.96H151.558ZM133.078 244.28H148.828V246.8H129.988V239.06H133.078V244.28ZM176.906 220.19V247.37H173.786V220.19H176.906ZM159.116 222.44V229.34H165.986V222.44H169.076V240.92H156.056V222.44H159.116ZM159.116 238.43H165.986V231.8H159.116V238.43ZM183.414 228.92C184.674 228.8 185.824 228.58 186.864 228.26C187.904 227.94 188.814 227.56 189.594 227.12C190.374 226.66 190.994 226.16 191.454 225.62C191.934 225.06 192.224 224.48 192.324 223.88H184.464V221.39H204.474V223.88H196.554C196.654 224.48 196.934 225.06 197.394 225.62C197.874 226.16 198.504 226.66 199.284 227.12C200.064 227.56 200.974 227.94 202.014 228.26C203.054 228.58 204.204 228.8 205.464 228.92L204.384 231.35C203.204 231.23 202.084 231.02 201.024 230.72C199.984 230.4 199.034 230.02 198.174 229.58C197.334 229.12 196.594 228.6 195.954 228.02C195.314 227.42 194.814 226.78 194.454 226.1C193.714 227.5 192.474 228.66 190.734 229.58C189.014 230.5 186.944 231.09 184.524 231.35L183.414 228.92ZM195.984 235.19V237.71C198.524 237.87 200.444 238.35 201.744 239.15C203.064 239.95 203.724 241.07 203.724 242.51C203.724 244.07 202.924 245.26 201.324 246.08C199.724 246.9 197.414 247.31 194.394 247.31C191.394 247.31 189.084 246.9 187.464 246.08C185.864 245.26 185.064 244.07 185.064 242.51C185.064 241.07 185.724 239.95 187.044 239.15C188.384 238.33 190.334 237.84 192.894 237.68V235.19H182.184V232.73H206.694V235.19H195.984ZM200.604 242.51C200.604 241.67 200.064 241.05 198.984 240.65C197.924 240.25 196.394 240.05 194.394 240.05C192.394 240.05 190.864 240.25 189.804 240.65C188.744 241.05 188.214 241.67 188.214 242.51C188.214 243.29 188.744 243.89 189.804 244.31C190.864 244.73 192.394 244.94 194.394 244.94C196.394 244.94 197.924 244.73 198.984 244.31C200.064 243.89 200.604 243.29 200.604 242.51ZM232.131 220.22V234.77H229.041V220.22H232.131ZM217.521 221.45C218.561 221.45 219.511 221.61 220.371 221.93C221.251 222.23 222.011 222.66 222.651 223.22C223.291 223.76 223.791 224.42 224.151 225.2C224.511 225.96 224.691 226.81 224.691 227.75C224.691 228.67 224.511 229.52 224.151 230.3C223.791 231.08 223.291 231.75 222.651 232.31C222.011 232.85 221.251 233.28 220.371 233.6C219.511 233.9 218.561 234.05 217.521 234.05C216.481 234.05 215.521 233.9 214.641 233.6C213.761 233.28 213.001 232.85 212.361 232.31C211.721 231.75 211.221 231.08 210.861 230.3C210.501 229.52 210.321 228.67 210.321 227.75C210.321 226.81 210.501 225.96 210.861 225.2C211.221 224.42 211.721 223.76 212.361 223.22C213.001 222.66 213.761 222.23 214.641 221.93C215.521 221.61 216.481 221.45 217.521 221.45ZM217.521 224C216.261 224 215.251 224.34 214.491 225.02C213.731 225.7 213.351 226.61 213.351 227.75C213.351 228.89 213.731 229.8 214.491 230.48C215.251 231.16 216.261 231.5 217.521 231.5C218.741 231.5 219.741 231.16 220.521 230.48C221.301 229.8 221.691 228.89 221.691 227.75C221.691 226.61 221.301 225.7 220.521 225.02C219.741 224.34 218.741 224 217.521 224ZM217.491 236.03V239.03H229.071V236.03H232.131V246.98H214.431V236.03H217.491ZM217.491 244.49H229.071V241.43H217.491V244.49ZM259.789 220.22V247.31H256.699V220.22H259.789ZM242.059 237.83C243.999 237.81 245.959 237.71 247.939 237.53C249.939 237.35 252.029 237.04 254.209 236.6L254.539 239.18C252.179 239.66 249.909 240 247.729 240.2C245.569 240.38 243.429 240.47 241.309 240.47H238.999V222.86H242.059V237.83ZM290.207 233.18H285.977V247.34H282.887V220.19H285.977V230.63H290.207V233.18ZM269.177 238.1C270.257 238.1 271.287 238.09 272.267 238.07C273.247 238.03 274.197 237.98 275.117 237.92C276.057 237.84 276.977 237.75 277.877 237.65C278.777 237.53 279.697 237.39 280.637 237.23L280.967 239.78C279.947 239.96 278.937 240.11 277.937 240.23C276.957 240.35 275.957 240.44 274.937 240.5C273.917 240.56 272.857 240.61 271.757 240.65C270.677 240.67 269.527 240.68 268.307 240.68H266.087V222.77H278.687V225.29H269.177V238.1ZM295.934 245.39H292.394V241.67H295.934V245.39Z" fill="#333333"/>
<path d="M12.5058 284.426H1.12384V283.488H6.21984V280.786H2.46784V274.374H3.60184V276.614H10.0138V274.374H11.1338V280.786H7.38184V283.488H12.5058V284.426ZM10.0138 279.862V277.552H3.60184V279.862H10.0138ZM23.6627 279.386V286.064H22.5147V273.478H23.6627V278.434H25.7347V279.386H23.6627ZM15.6827 281.948C16.2427 281.948 16.7654 281.943 17.2507 281.934C17.7454 281.915 18.2167 281.892 18.6647 281.864C19.1221 281.836 19.5701 281.794 20.0087 281.738C20.4474 281.682 20.8907 281.612 21.3387 281.528L21.4647 282.48C20.9887 282.573 20.5221 282.653 20.0647 282.718C19.6074 282.774 19.1407 282.821 18.6647 282.858C18.1887 282.886 17.6941 282.905 17.1807 282.914C16.6674 282.923 16.1167 282.928 15.5287 282.928H14.5347V274.682H20.3727V275.634H15.6827V281.948ZM39.6725 279.442V286.036H38.5245V273.478H39.6725V278.49H41.6885V279.442H39.6725ZM31.6505 281.892C32.5558 281.892 33.4752 281.85 34.4085 281.766C35.3512 281.682 36.3312 281.537 37.3485 281.332L37.4885 282.284C36.4152 282.499 35.3885 282.648 34.4085 282.732C33.4378 282.816 32.4718 282.858 31.5105 282.858H30.5165V274.696H31.6505V281.892ZM48.5614 278.91C47.8894 278.91 47.2827 278.854 46.7414 278.742C46.2001 278.63 45.7334 278.467 45.3414 278.252C44.9587 278.037 44.6647 277.776 44.4594 277.468C44.2541 277.16 44.1514 276.81 44.1514 276.418C44.1514 276.026 44.2541 275.676 44.4594 275.368C44.6647 275.06 44.9587 274.799 45.3414 274.584C45.7334 274.36 46.2001 274.192 46.7414 274.08C47.2827 273.968 47.8894 273.912 48.5614 273.912C49.2334 273.912 49.8401 273.968 50.3814 274.08C50.9227 274.192 51.3847 274.36 51.7674 274.584C52.1594 274.799 52.4581 275.06 52.6634 275.368C52.8687 275.676 52.9714 276.026 52.9714 276.418C52.9714 276.81 52.8687 277.16 52.6634 277.468C52.4581 277.776 52.1594 278.037 51.7674 278.252C51.3847 278.467 50.9227 278.63 50.3814 278.742C49.8401 278.854 49.2334 278.91 48.5614 278.91ZM48.5614 274.836C47.5721 274.836 46.7834 274.976 46.1954 275.256C45.6167 275.527 45.3274 275.914 45.3274 276.418C45.3274 276.922 45.6167 277.309 46.1954 277.58C46.7834 277.851 47.5721 277.986 48.5614 277.986C49.5507 277.986 50.3347 277.851 50.9134 277.58C51.5014 277.309 51.7954 276.922 51.7954 276.418C51.7954 275.914 51.5014 275.527 50.9134 275.256C50.3347 274.976 49.5507 274.836 48.5614 274.836ZM54.2314 281.01H42.8774V280.086H54.2314V281.01ZM52.9854 284.818V285.756H44.3474V282.116H45.4954V284.818H52.9854ZM69.2472 286.05H68.0992V278.672H65.1872V277.734H68.0992V273.478H69.2472V286.05ZM63.2972 276.81C63.2972 277.379 63.3812 277.944 63.5492 278.504C63.7172 279.055 63.9458 279.573 64.2352 280.058C64.5338 280.543 64.8792 280.977 65.2712 281.36C65.6632 281.733 66.0878 282.027 66.5452 282.242L65.8732 283.152C65.5278 282.975 65.1918 282.751 64.8652 282.48C64.5478 282.2 64.2538 281.892 63.9832 281.556C63.7125 281.211 63.4698 280.837 63.2552 280.436C63.0405 280.035 62.8632 279.615 62.7232 279.176C62.5832 279.643 62.4058 280.091 62.1912 280.52C61.9858 280.94 61.7478 281.332 61.4772 281.696C61.2158 282.06 60.9265 282.387 60.6092 282.676C60.2918 282.956 59.9558 283.189 59.6012 283.376L58.9012 282.466C59.3585 282.242 59.7832 281.929 60.1752 281.528C60.5672 281.127 60.9078 280.674 61.1972 280.17C61.4958 279.666 61.7292 279.125 61.8972 278.546C62.0652 277.967 62.1492 277.389 62.1492 276.81V274.556H63.2972V276.81ZM82.0561 286.05H80.9081V273.478H82.0561V286.05ZM73.6281 277.86H77.2681V274.542H78.4021V283.012H72.4941V274.542H73.6281V277.86ZM77.2681 282.074V278.77H73.6281V282.074H77.2681ZM94.963 280.744C94.487 280.632 94.011 280.469 93.535 280.254C93.0683 280.03 92.625 279.764 92.205 279.456C91.7943 279.148 91.421 278.798 91.085 278.406C90.7583 278.005 90.497 277.575 90.301 277.118C90.105 277.575 89.839 278 89.503 278.392C89.1763 278.784 88.803 279.139 88.383 279.456C87.9723 279.764 87.529 280.03 87.053 280.254C86.5863 280.469 86.1197 280.632 85.653 280.744L85.135 279.792C85.6857 279.68 86.2317 279.489 86.773 279.218C87.3143 278.938 87.7997 278.602 88.229 278.21C88.6677 277.809 89.0223 277.365 89.293 276.88C89.5637 276.385 89.699 275.867 89.699 275.326V274.36H90.903V275.326C90.903 275.858 91.0383 276.371 91.309 276.866C91.5797 277.361 91.9297 277.809 92.359 278.21C92.7977 278.602 93.2877 278.938 93.829 279.218C94.3797 279.498 94.9303 279.689 95.481 279.792L94.963 280.744ZM96.041 284.356H84.659V283.404H96.041V284.356ZM111.337 286.022H110.231V273.464H111.337V286.022ZM108.803 273.758V285.378H107.711V278.924H105.639V277.986H107.711V273.758H108.803ZM104.351 277.02C104.351 277.561 104.407 278.103 104.519 278.644C104.64 279.176 104.813 279.68 105.037 280.156C105.261 280.623 105.541 281.047 105.877 281.43C106.213 281.813 106.595 282.125 107.025 282.368L106.325 283.208C105.709 282.844 105.186 282.349 104.757 281.724C104.337 281.089 104.019 280.361 103.805 279.54C103.59 280.417 103.259 281.201 102.811 281.892C102.372 282.583 101.84 283.124 101.215 283.516L100.515 282.662C100.953 282.401 101.341 282.069 101.677 281.668C102.022 281.257 102.311 280.805 102.545 280.31C102.778 279.815 102.951 279.288 103.063 278.728C103.184 278.168 103.245 277.599 103.245 277.02V275.886H100.865V274.948H106.591V275.886H104.351V277.02ZM114.906 275.046V274.122H123.46V275.186C123.46 275.69 123.446 276.208 123.418 276.74C123.39 277.272 123.287 277.86 123.11 278.504L121.99 278.378C122.158 277.734 122.256 277.165 122.284 276.67C122.312 276.166 122.326 275.671 122.326 275.186V275.046H114.906ZM124.874 280.268H113.576V279.33H118.21V276.922H119.358V279.33H124.874V280.268ZM119.176 281.416C119.848 281.416 120.45 281.467 120.982 281.57C121.523 281.673 121.985 281.827 122.368 282.032C122.75 282.228 123.044 282.471 123.25 282.76C123.455 283.04 123.558 283.362 123.558 283.726C123.558 284.081 123.455 284.403 123.25 284.692C123.044 284.972 122.75 285.21 122.368 285.406C121.985 285.602 121.523 285.751 120.982 285.854C120.45 285.966 119.848 286.022 119.176 286.022C118.504 286.022 117.897 285.966 117.356 285.854C116.824 285.751 116.366 285.602 115.984 285.406C115.61 285.21 115.321 284.972 115.116 284.692C114.91 284.403 114.808 284.081 114.808 283.726C114.808 283.362 114.91 283.04 115.116 282.76C115.321 282.471 115.61 282.228 115.984 282.032C116.366 281.827 116.824 281.673 117.356 281.57C117.897 281.467 118.504 281.416 119.176 281.416ZM119.176 285.126C120.165 285.126 120.949 285.005 121.528 284.762C122.116 284.519 122.41 284.174 122.41 283.726C122.41 283.278 122.116 282.928 121.528 282.676C120.949 282.424 120.165 282.298 119.176 282.298C118.196 282.298 117.412 282.424 116.824 282.676C116.245 282.928 115.956 283.278 115.956 283.726C115.956 284.165 116.245 284.51 116.824 284.762C117.412 285.005 118.196 285.126 119.176 285.126ZM132.097 278.042C130.715 278.042 129.633 277.86 128.849 277.496C128.074 277.123 127.687 276.581 127.687 275.872C127.687 275.163 128.074 274.621 128.849 274.248C129.633 273.875 130.715 273.688 132.097 273.688C133.478 273.688 134.556 273.875 135.331 274.248C136.115 274.621 136.507 275.163 136.507 275.872C136.507 276.581 136.115 277.123 135.331 277.496C134.556 277.86 133.478 278.042 132.097 278.042ZM132.097 274.556C131.051 274.556 130.249 274.673 129.689 274.906C129.138 275.13 128.863 275.452 128.863 275.872C128.863 276.292 129.138 276.619 129.689 276.852C130.249 277.076 131.051 277.188 132.097 277.188C133.142 277.188 133.94 277.076 134.491 276.852C135.051 276.619 135.331 276.292 135.331 275.872C135.331 275.452 135.051 275.13 134.491 274.906C133.94 274.673 133.142 274.556 132.097 274.556ZM137.781 279.82H126.413V278.896H137.781V279.82ZM136.703 285V285.896H127.827V282.886H135.191V281.766H127.785V280.898H136.325V283.726H128.947V285H136.703ZM152.74 286.05H151.592V273.492H152.74V286.05ZM146.552 279.232C146.086 279.232 145.656 279.171 145.264 279.05C144.872 278.919 144.532 278.742 144.242 278.518C143.962 278.294 143.743 278.023 143.584 277.706C143.426 277.389 143.346 277.039 143.346 276.656C143.346 276.273 143.426 275.923 143.584 275.606C143.743 275.289 143.962 275.018 144.242 274.794C144.532 274.561 144.872 274.383 145.264 274.262C145.656 274.131 146.086 274.066 146.552 274.066C147.019 274.066 147.448 274.131 147.84 274.262C148.232 274.383 148.568 274.561 148.848 274.794C149.128 275.018 149.348 275.289 149.506 275.606C149.665 275.923 149.744 276.273 149.744 276.656C149.744 277.039 149.665 277.389 149.506 277.706C149.348 278.023 149.128 278.294 148.848 278.518C148.568 278.742 148.232 278.919 147.84 279.05C147.448 279.171 147.019 279.232 146.552 279.232ZM146.552 275.018C146.244 275.018 145.96 275.06 145.698 275.144C145.446 275.219 145.227 275.331 145.04 275.48C144.854 275.62 144.709 275.793 144.606 275.998C144.504 276.194 144.452 276.413 144.452 276.656C144.452 276.899 144.504 277.123 144.606 277.328C144.709 277.524 144.854 277.697 145.04 277.846C145.227 277.986 145.446 278.098 145.698 278.182C145.96 278.257 146.244 278.294 146.552 278.294C147.168 278.294 147.668 278.149 148.05 277.86C148.442 277.561 148.638 277.16 148.638 276.656C148.638 276.152 148.442 275.755 148.05 275.466C147.668 275.167 147.168 275.018 146.552 275.018ZM150.78 280.702C149.586 280.917 148.386 281.057 147.182 281.122V285.644H146.034V281.192C145.409 281.22 144.807 281.239 144.228 281.248C143.65 281.257 143.094 281.262 142.562 281.262L142.408 280.296C142.996 280.296 143.626 280.291 144.298 280.282C144.98 280.273 145.675 280.254 146.384 280.226C147.103 280.198 147.826 280.156 148.554 280.1C149.282 280.035 149.992 279.951 150.682 279.848L150.78 280.702ZM164.989 279.61V286.036H163.841V273.492H164.989V278.644H167.047V279.61H164.989ZM162.651 275.494V276.418H155.245V275.494H158.409V273.632H159.557V275.494H162.651ZM158.997 277.454C159.445 277.454 159.856 277.529 160.229 277.678C160.603 277.818 160.925 278.019 161.195 278.28C161.475 278.532 161.69 278.835 161.839 279.19C161.989 279.545 162.063 279.932 162.063 280.352C162.063 280.781 161.989 281.173 161.839 281.528C161.69 281.883 161.475 282.186 161.195 282.438C160.925 282.69 160.603 282.886 160.229 283.026C159.856 283.166 159.445 283.236 158.997 283.236C158.559 283.236 158.153 283.166 157.779 283.026C157.406 282.886 157.084 282.69 156.813 282.438C156.543 282.186 156.333 281.883 156.183 281.528C156.034 281.173 155.959 280.781 155.959 280.352C155.959 279.932 156.034 279.545 156.183 279.19C156.333 278.835 156.543 278.532 156.813 278.28C157.084 278.019 157.406 277.818 157.779 277.678C158.153 277.529 158.559 277.454 158.997 277.454ZM158.997 282.284C159.287 282.284 159.553 282.237 159.795 282.144C160.038 282.041 160.243 281.906 160.411 281.738C160.589 281.57 160.724 281.369 160.817 281.136C160.92 280.893 160.971 280.632 160.971 280.352C160.971 280.072 160.92 279.815 160.817 279.582C160.724 279.339 160.589 279.134 160.411 278.966C160.243 278.789 160.038 278.653 159.795 278.56C159.553 278.457 159.287 278.406 158.997 278.406C158.717 278.406 158.456 278.457 158.213 278.56C157.971 278.653 157.761 278.789 157.583 278.966C157.415 279.134 157.28 279.339 157.177 279.582C157.084 279.815 157.037 280.072 157.037 280.352C157.037 280.632 157.084 280.893 157.177 281.136C157.28 281.369 157.415 281.57 157.583 281.738C157.761 281.906 157.971 282.041 158.213 282.144C158.456 282.237 158.717 282.284 158.997 282.284ZM178.54 286.064H177.392V281.192H174.256C173.995 281.836 173.631 282.335 173.164 282.69C172.707 283.035 172.17 283.208 171.554 283.208C171.097 283.208 170.677 283.105 170.294 282.9C169.911 282.695 169.58 282.401 169.3 282.018C169.02 281.635 168.801 281.178 168.642 280.646C168.493 280.105 168.418 279.498 168.418 278.826C168.418 278.154 168.493 277.552 168.642 277.02C168.801 276.479 169.02 276.017 169.3 275.634C169.58 275.251 169.911 274.957 170.294 274.752C170.677 274.547 171.097 274.444 171.554 274.444C172.142 274.444 172.655 274.607 173.094 274.934C173.542 275.251 173.901 275.704 174.172 276.292H177.392V273.478H178.54V286.064ZM171.554 282.186C171.853 282.186 172.123 282.107 172.366 281.948C172.618 281.789 172.833 281.565 173.01 281.276C173.197 280.977 173.341 280.623 173.444 280.212C173.547 279.801 173.598 279.339 173.598 278.826C173.598 278.322 173.547 277.865 173.444 277.454C173.341 277.034 173.197 276.679 173.01 276.39C172.833 276.101 172.618 275.877 172.366 275.718C172.123 275.559 171.853 275.48 171.554 275.48C171.255 275.48 170.98 275.559 170.728 275.718C170.476 275.877 170.257 276.101 170.07 276.39C169.893 276.679 169.753 277.034 169.65 277.454C169.557 277.865 169.51 278.322 169.51 278.826C169.51 279.339 169.557 279.801 169.65 280.212C169.753 280.623 169.893 280.977 170.07 281.276C170.257 281.565 170.476 281.789 170.728 281.948C170.98 282.107 171.255 282.186 171.554 282.186ZM177.392 277.23H174.494C174.55 277.473 174.592 277.729 174.62 278C174.657 278.261 174.676 278.537 174.676 278.826C174.676 279.414 174.629 279.89 174.536 280.254H177.392V277.23ZM194.928 286.036H193.822V273.492H194.928V286.036ZM192.478 273.786V285.378H191.4V279.274H189.692V278.266H191.4V273.786H192.478ZM189.02 281.822C189.244 281.803 189.468 281.785 189.692 281.766C189.916 281.738 190.131 281.71 190.336 281.682L190.406 282.522C189.921 282.615 189.398 282.69 188.838 282.746C188.287 282.802 187.732 282.844 187.172 282.872C186.621 282.9 186.089 282.919 185.576 282.928C185.063 282.937 184.601 282.942 184.19 282.942L184.078 281.99H185.002C185.114 281.99 185.231 281.985 185.352 281.976V275.998H184.316V275.074H190.056V275.998H189.02V281.822ZM186.402 281.948C186.663 281.939 186.92 281.934 187.172 281.934C187.433 281.925 187.699 281.911 187.97 281.892V275.998H186.402V281.948ZM207.359 286.064H206.211V273.478H207.359V286.064ZM200.737 274.444C201.203 274.444 201.633 274.547 202.025 274.752C202.417 274.957 202.753 275.251 203.033 275.634C203.313 276.017 203.532 276.479 203.691 277.02C203.849 277.552 203.929 278.154 203.929 278.826C203.929 279.498 203.849 280.105 203.691 280.646C203.532 281.178 203.313 281.635 203.033 282.018C202.753 282.401 202.417 282.695 202.025 282.9C201.633 283.105 201.203 283.208 200.737 283.208C200.27 283.208 199.841 283.105 199.449 282.9C199.057 282.695 198.721 282.401 198.441 282.018C198.161 281.635 197.941 281.178 197.783 280.646C197.624 280.105 197.545 279.498 197.545 278.826C197.545 278.154 197.624 277.552 197.783 277.02C197.941 276.479 198.161 276.017 198.441 275.634C198.721 275.251 199.057 274.957 199.449 274.752C199.841 274.547 200.27 274.444 200.737 274.444ZM200.737 275.48C200.429 275.48 200.144 275.559 199.883 275.718C199.631 275.877 199.411 276.101 199.225 276.39C199.038 276.679 198.893 277.034 198.791 277.454C198.688 277.865 198.637 278.322 198.637 278.826C198.637 279.339 198.688 279.801 198.791 280.212C198.893 280.623 199.038 280.977 199.225 281.276C199.411 281.565 199.631 281.789 199.883 281.948C200.144 282.107 200.429 282.186 200.737 282.186C201.045 282.186 201.325 282.107 201.577 281.948C201.829 281.789 202.048 281.565 202.235 281.276C202.421 280.977 202.566 280.623 202.669 280.212C202.771 279.801 202.823 279.339 202.823 278.826C202.823 278.322 202.771 277.865 202.669 277.454C202.566 277.034 202.421 276.679 202.235 276.39C202.048 276.101 201.829 275.877 201.577 275.718C201.325 275.559 201.045 275.48 200.737 275.48ZM220.238 286.036H219.09V273.492H220.238V286.036ZM214.442 277.314C214.442 277.846 214.53 278.373 214.708 278.896C214.885 279.419 215.123 279.909 215.422 280.366C215.73 280.814 216.089 281.215 216.5 281.57C216.91 281.925 217.344 282.2 217.802 282.396L217.158 283.32C216.794 283.152 216.444 282.937 216.108 282.676C215.781 282.415 215.473 282.121 215.184 281.794C214.904 281.467 214.652 281.108 214.428 280.716C214.204 280.324 214.017 279.913 213.868 279.484C213.728 279.941 213.546 280.38 213.322 280.8C213.098 281.22 212.846 281.612 212.566 281.976C212.286 282.34 211.982 282.662 211.656 282.942C211.329 283.222 210.988 283.451 210.634 283.628L209.962 282.704C210.41 282.489 210.834 282.191 211.236 281.808C211.646 281.416 212.001 280.982 212.3 280.506C212.608 280.021 212.85 279.503 213.028 278.952C213.205 278.401 213.294 277.855 213.294 277.314V275.718H210.382V274.766H217.396V275.718H214.442V277.314ZM226.657 278.112C227.217 278.037 227.754 277.907 228.267 277.72C228.781 277.533 229.233 277.309 229.625 277.048C230.017 276.777 230.33 276.474 230.563 276.138C230.797 275.793 230.913 275.429 230.913 275.046V275.032H227.007V274.108H236.303V275.032H232.397V275.046C232.397 275.429 232.514 275.793 232.747 276.138C232.981 276.474 233.293 276.777 233.685 277.048C234.077 277.319 234.53 277.547 235.043 277.734C235.557 277.911 236.089 278.037 236.639 278.112L236.219 279.036C235.706 278.961 235.211 278.845 234.735 278.686C234.259 278.518 233.821 278.317 233.419 278.084C233.018 277.841 232.663 277.571 232.355 277.272C232.057 276.964 231.823 276.628 231.655 276.264C231.487 276.628 231.249 276.964 230.941 277.272C230.633 277.571 230.279 277.841 229.877 278.084C229.476 278.317 229.037 278.518 228.561 278.686C228.085 278.845 227.595 278.961 227.091 279.036L226.657 278.112ZM237.339 280.87H232.313V283.418H231.165V280.87H225.943V279.946H237.339V280.87ZM236.079 284.818V285.756H227.399V282.2H228.547V284.818H236.079ZM249.126 286.05H247.978V273.478H249.126V286.05ZM240.698 277.86H244.338V274.542H245.472V283.012H239.564V274.542H240.698V277.86ZM244.338 282.074V278.77H240.698V282.074H244.338ZM252.373 277.692C252.924 277.627 253.451 277.515 253.955 277.356C254.469 277.197 254.921 277.001 255.313 276.768C255.705 276.525 256.023 276.255 256.265 275.956C256.508 275.648 256.643 275.321 256.671 274.976H252.779V274.052H262.061V274.976H258.155C258.183 275.321 258.319 275.648 258.561 275.956C258.804 276.255 259.121 276.525 259.513 276.768C259.905 277.001 260.353 277.197 260.857 277.356C261.371 277.515 261.903 277.627 262.453 277.692L262.047 278.602C261.534 278.537 261.035 278.434 260.549 278.294C260.073 278.145 259.63 277.963 259.219 277.748C258.818 277.533 258.459 277.281 258.141 276.992C257.833 276.703 257.591 276.385 257.413 276.04C257.245 276.385 257.003 276.703 256.685 276.992C256.377 277.281 256.018 277.533 255.607 277.748C255.206 277.963 254.763 278.145 254.277 278.294C253.792 278.434 253.293 278.537 252.779 278.602L252.373 277.692ZM257.987 281.626C259.191 281.682 260.111 281.897 260.745 282.27C261.38 282.643 261.697 283.157 261.697 283.81C261.697 284.529 261.319 285.075 260.563 285.448C259.807 285.831 258.757 286.022 257.413 286.022C256.069 286.022 255.015 285.831 254.249 285.448C253.484 285.075 253.101 284.529 253.101 283.81C253.101 283.157 253.419 282.643 254.053 282.27C254.697 281.897 255.621 281.682 256.825 281.626V280.282H251.729V279.358H263.083V280.282H257.987V281.626ZM260.535 283.81C260.535 283.39 260.26 283.068 259.709 282.844C259.159 282.611 258.389 282.494 257.399 282.494C256.41 282.494 255.64 282.611 255.089 282.844C254.539 283.068 254.263 283.39 254.263 283.81C254.263 284.23 254.539 284.557 255.089 284.79C255.64 285.023 256.41 285.14 257.399 285.14C258.389 285.14 259.159 285.023 259.709 284.79C260.26 284.557 260.535 284.23 260.535 283.81ZM275.276 286.036H274.184V273.478H275.276V286.036ZM272.784 273.758V285.42H271.692V279.302H270.11C270.082 279.918 269.998 280.473 269.858 280.968C269.728 281.453 269.546 281.869 269.312 282.214C269.088 282.559 268.818 282.825 268.5 283.012C268.183 283.189 267.833 283.278 267.45 283.278C267.04 283.278 266.666 283.175 266.33 282.97C266.004 282.765 265.724 282.475 265.49 282.102C265.257 281.719 265.075 281.257 264.944 280.716C264.823 280.175 264.762 279.563 264.762 278.882C264.762 278.21 264.823 277.608 264.944 277.076C265.075 276.535 265.257 276.077 265.49 275.704C265.724 275.321 266.004 275.032 266.33 274.836C266.666 274.631 267.04 274.528 267.45 274.528C267.833 274.528 268.178 274.617 268.486 274.794C268.794 274.971 269.06 275.228 269.284 275.564C269.518 275.891 269.704 276.292 269.844 276.768C269.984 277.244 270.073 277.776 270.11 278.364H271.692V273.758H272.784ZM267.45 282.214C267.954 282.214 268.351 281.92 268.64 281.332C268.93 280.744 269.074 279.927 269.074 278.882C269.074 278.378 269.032 277.925 268.948 277.524C268.874 277.113 268.766 276.768 268.626 276.488C268.486 276.199 268.314 275.979 268.108 275.83C267.912 275.671 267.693 275.592 267.45 275.592C266.946 275.592 266.545 275.891 266.246 276.488C265.957 277.076 265.812 277.874 265.812 278.882C265.812 279.927 265.957 280.744 266.246 281.332C266.545 281.92 266.946 282.214 267.45 282.214ZM289.774 280.66V273.492H290.922V280.66H289.774ZM284.174 280.072C283.698 280.072 283.259 280.002 282.858 279.862C282.466 279.722 282.125 279.521 281.836 279.26C281.547 278.999 281.318 278.691 281.15 278.336C280.991 277.972 280.912 277.575 280.912 277.146C280.912 276.707 280.991 276.311 281.15 275.956C281.318 275.601 281.547 275.293 281.836 275.032C282.125 274.771 282.466 274.57 282.858 274.43C283.259 274.29 283.698 274.22 284.174 274.22C284.65 274.22 285.089 274.29 285.49 274.43C285.891 274.57 286.237 274.771 286.526 275.032C286.825 275.293 287.053 275.601 287.212 275.956C287.38 276.311 287.464 276.707 287.464 277.146C287.464 277.575 287.38 277.972 287.212 278.336C287.053 278.691 286.825 278.999 286.526 279.26C286.237 279.521 285.891 279.722 285.49 279.862C285.089 280.002 284.65 280.072 284.174 280.072ZM284.174 275.172C283.866 275.172 283.577 275.223 283.306 275.326C283.045 275.419 282.821 275.555 282.634 275.732C282.447 275.9 282.298 276.105 282.186 276.348C282.083 276.591 282.032 276.857 282.032 277.146C282.032 277.435 282.083 277.701 282.186 277.944C282.298 278.187 282.447 278.397 282.634 278.574C282.821 278.742 283.045 278.877 283.306 278.98C283.577 279.073 283.866 279.12 284.174 279.12C284.482 279.12 284.767 279.073 285.028 278.98C285.299 278.877 285.532 278.742 285.728 278.574C285.924 278.397 286.073 278.187 286.176 277.944C286.288 277.701 286.344 277.435 286.344 277.146C286.344 276.857 286.288 276.591 286.176 276.348C286.073 276.105 285.924 275.9 285.728 275.732C285.532 275.555 285.299 275.419 285.028 275.326C284.767 275.223 284.482 275.172 284.174 275.172ZM289.522 281.878C289.522 282.205 289.578 282.527 289.69 282.844C289.802 283.161 289.965 283.46 290.18 283.74C290.395 284.011 290.656 284.258 290.964 284.482C291.281 284.697 291.641 284.869 292.042 285L291.468 285.868C290.852 285.644 290.329 285.327 289.9 284.916C289.48 284.505 289.163 284.034 288.948 283.502C288.752 284.015 288.463 284.496 288.08 284.944C287.697 285.383 287.212 285.728 286.624 285.98C286.008 285.737 285.509 285.406 285.126 284.986C284.753 284.557 284.473 284.076 284.286 283.544C284.062 284.048 283.74 284.505 283.32 284.916C282.9 285.327 282.396 285.644 281.808 285.868L281.234 285C281.626 284.86 281.976 284.678 282.284 284.454C282.601 284.221 282.867 283.964 283.082 283.684C283.306 283.404 283.474 283.11 283.586 282.802C283.698 282.494 283.754 282.186 283.754 281.878V281.206H284.86V281.878C284.86 282.438 285 282.989 285.28 283.53C285.569 284.071 286.008 284.515 286.596 284.86C286.895 284.673 287.156 284.459 287.38 284.216C287.613 283.973 287.805 283.721 287.954 283.46C288.103 283.189 288.215 282.919 288.29 282.648C288.365 282.377 288.402 282.121 288.402 281.878V281.206H289.522V281.878ZM303.787 278.322C303.302 278.247 302.826 278.131 302.359 277.972C301.892 277.813 301.454 277.622 301.043 277.398C300.642 277.165 300.278 276.899 299.951 276.6C299.634 276.301 299.377 275.979 299.181 275.634C298.985 275.979 298.724 276.301 298.397 276.6C298.08 276.899 297.716 277.165 297.305 277.398C296.904 277.622 296.47 277.813 296.003 277.972C295.536 278.131 295.056 278.247 294.561 278.322L294.141 277.398C294.701 277.333 295.247 277.202 295.779 277.006C296.32 276.81 296.796 276.572 297.207 276.292C297.627 276.003 297.963 275.681 298.215 275.326C298.467 274.962 298.593 274.579 298.593 274.178V273.618H299.769V274.178C299.769 274.561 299.895 274.934 300.147 275.298C300.399 275.653 300.73 275.975 301.141 276.264C301.561 276.553 302.037 276.801 302.569 277.006C303.101 277.202 303.647 277.333 304.207 277.398L303.787 278.322ZM304.851 280.128H293.483V279.204H304.851V280.128ZM303.367 280.996V285.868H294.925V280.996H296.059V282.466H302.233V280.996H303.367ZM296.059 283.348V284.944H302.233V283.348H296.059ZM316.666 286.022H315.518V273.478H316.666V286.022ZM308.308 281.808C309.269 281.808 310.235 281.766 311.206 281.682C312.176 281.589 313.184 281.435 314.23 281.22L314.356 282.2C313.254 282.424 312.204 282.578 311.206 282.662C310.207 282.746 309.204 282.788 308.196 282.788H307.16V274.696H308.308V281.808ZM328.915 279.386V286.064H327.767V273.478H328.915V278.434H330.987V279.386H328.915ZM320.935 281.948C321.495 281.948 322.017 281.943 322.503 281.934C322.997 281.915 323.469 281.892 323.917 281.864C324.374 281.836 324.822 281.794 325.261 281.738C325.699 281.682 326.143 281.612 326.591 281.528L326.717 282.48C326.241 282.573 325.774 282.653 325.317 282.718C324.859 282.774 324.393 282.821 323.917 282.858C323.441 282.886 322.946 282.905 322.433 282.914C321.919 282.923 321.369 282.928 320.781 282.928H319.787V274.682H325.625V275.634H320.935V281.948ZM333.254 283.88V285.196H331.98V283.88H333.254ZM62.4577 299.344V306.036H61.3237V293.478H62.4577V298.378H64.1377V299.344H62.4577ZM56.1717 294.654V302.998H52.6997V294.654H53.6797V297.874H55.2197V294.654H56.1717ZM60.2597 294.654V302.998H56.8437V294.654H57.8097V297.874H59.2937V294.654H60.2597ZM53.6797 298.798V302.06H55.2197V298.798H53.6797ZM57.8097 298.798V302.06H59.2937V298.798H57.8097ZM66.7686 294.794V293.898H75.2666V297.02H67.9306V298.392H75.5326V299.288H66.7966V296.166H74.1326V294.794H66.7686ZM76.7226 301.374H65.3266V300.436H76.7226V301.374ZM75.5326 304.818V305.756H66.8246V302.34H67.9726V304.818H75.5326ZM91.6264 306.064H90.4784V293.478H91.6264V306.064ZM85.8024 296.824C85.8024 297.393 85.8911 297.963 86.0684 298.532C86.2457 299.092 86.4837 299.615 86.7824 300.1C87.0904 300.585 87.4497 301.019 87.8604 301.402C88.2711 301.775 88.7051 302.065 89.1624 302.27L88.4764 303.194C87.7484 302.839 87.0997 302.317 86.5304 301.626C85.9704 300.926 85.5411 300.123 85.2424 299.218C84.9531 300.179 84.5237 301.024 83.9544 301.752C83.3851 302.48 82.7317 303.04 81.9944 303.432L81.2944 302.494C81.7517 302.27 82.1857 301.962 82.5964 301.57C83.0071 301.178 83.3664 300.73 83.6744 300.226C83.9824 299.722 84.2251 299.181 84.4024 298.602C84.5797 298.014 84.6684 297.421 84.6684 296.824V294.57H85.8024V296.824ZM103.385 299.918V293.478H104.533V299.918H103.385ZM101.005 296.726C101.005 297.137 100.921 297.515 100.753 297.86C100.595 298.196 100.371 298.485 100.081 298.728C99.792 298.971 99.4466 299.162 99.0453 299.302C98.6533 299.433 98.224 299.498 97.7573 299.498C97.2906 299.498 96.8566 299.433 96.4553 299.302C96.0633 299.162 95.7226 298.971 95.4333 298.728C95.1533 298.485 94.9293 298.196 94.7613 297.86C94.6026 297.515 94.5233 297.137 94.5233 296.726C94.5233 296.306 94.6026 295.928 94.7613 295.592C94.9293 295.247 95.1533 294.953 95.4333 294.71C95.7226 294.458 96.0633 294.267 96.4553 294.136C96.8566 293.996 97.2906 293.926 97.7573 293.926C98.224 293.926 98.6533 293.996 99.0453 294.136C99.4466 294.267 99.792 294.458 100.081 294.71C100.371 294.953 100.595 295.247 100.753 295.592C100.921 295.928 101.005 296.306 101.005 296.726ZM95.6293 296.726C95.6293 296.987 95.6806 297.235 95.7833 297.468C95.8953 297.692 96.0446 297.888 96.2313 298.056C96.4273 298.215 96.6513 298.341 96.9033 298.434C97.1646 298.527 97.4493 298.574 97.7573 298.574C98.0653 298.574 98.35 298.527 98.6113 298.434C98.8726 298.341 99.0966 298.215 99.2833 298.056C99.47 297.888 99.6146 297.692 99.7173 297.468C99.8293 297.235 99.8853 296.987 99.8853 296.726C99.8853 296.455 99.8293 296.208 99.7173 295.984C99.6146 295.751 99.47 295.555 99.2833 295.396C99.0966 295.228 98.8726 295.097 98.6113 295.004C98.35 294.911 98.0653 294.864 97.7573 294.864C97.4493 294.864 97.1646 294.911 96.9033 295.004C96.6513 295.097 96.4273 295.228 96.2313 295.396C96.0446 295.555 95.8953 295.751 95.7833 295.984C95.6806 296.208 95.6293 296.455 95.6293 296.726ZM104.953 305.868H96.4273V302.718H103.399V301.444H96.3993V300.534H104.533V303.572H97.5613V304.958H104.953V305.868ZM117.762 306.022H116.656V299.54H114.878V305.392H113.8V293.758H114.878V298.588H116.656V293.478H117.762V306.022ZM108.872 301.78C109.488 301.771 110.123 301.743 110.776 301.696C111.439 301.64 112.148 301.537 112.904 301.388L113.016 302.382C112.167 302.541 111.374 302.648 110.636 302.704C109.908 302.751 109.204 302.774 108.522 302.774H107.724V295.004H108.872V301.78ZM130.655 306.036H129.563V293.478H130.655V306.036ZM128.163 293.758V305.42H127.071V299.302H125.489C125.461 299.918 125.377 300.473 125.237 300.968C125.106 301.453 124.924 301.869 124.691 302.214C124.467 302.559 124.196 302.825 123.879 303.012C123.562 303.189 123.212 303.278 122.829 303.278C122.418 303.278 122.045 303.175 121.709 302.97C121.382 302.765 121.102 302.475 120.869 302.102C120.636 301.719 120.454 301.257 120.323 300.716C120.202 300.175 120.141 299.563 120.141 298.882C120.141 298.21 120.202 297.608 120.323 297.076C120.454 296.535 120.636 296.077 120.869 295.704C121.102 295.321 121.382 295.032 121.709 294.836C122.045 294.631 122.418 294.528 122.829 294.528C123.212 294.528 123.557 294.617 123.865 294.794C124.173 294.971 124.439 295.228 124.663 295.564C124.896 295.891 125.083 296.292 125.223 296.768C125.363 297.244 125.452 297.776 125.489 298.364H127.071V293.758H128.163ZM122.829 302.214C123.333 302.214 123.73 301.92 124.019 301.332C124.308 300.744 124.453 299.927 124.453 298.882C124.453 298.378 124.411 297.925 124.327 297.524C124.252 297.113 124.145 296.768 124.005 296.488C123.865 296.199 123.692 295.979 123.487 295.83C123.291 295.671 123.072 295.592 122.829 295.592C122.325 295.592 121.924 295.891 121.625 296.488C121.336 297.076 121.191 297.874 121.191 298.882C121.191 299.927 121.336 300.744 121.625 301.332C121.924 301.92 122.325 302.214 122.829 302.214ZM136.683 298.112C137.243 298.037 137.78 297.907 138.293 297.72C138.806 297.533 139.259 297.309 139.651 297.048C140.043 296.777 140.356 296.474 140.589 296.138C140.822 295.793 140.939 295.429 140.939 295.046V295.032H137.033V294.108H146.329V295.032H142.423V295.046C142.423 295.429 142.54 295.793 142.773 296.138C143.006 296.474 143.319 296.777 143.711 297.048C144.103 297.319 144.556 297.547 145.069 297.734C145.582 297.911 146.114 298.037 146.665 298.112L146.245 299.036C145.732 298.961 145.237 298.845 144.761 298.686C144.285 298.518 143.846 298.317 143.445 298.084C143.044 297.841 142.689 297.571 142.381 297.272C142.082 296.964 141.849 296.628 141.681 296.264C141.513 296.628 141.275 296.964 140.967 297.272C140.659 297.571 140.304 297.841 139.903 298.084C139.502 298.317 139.063 298.518 138.587 298.686C138.111 298.845 137.621 298.961 137.117 299.036L136.683 298.112ZM147.365 300.87H142.339V303.418H141.191V300.87H135.969V299.946H147.365V300.87ZM146.105 304.818V305.756H137.425V302.2H138.573V304.818H146.105ZM159.152 306.05H158.004V293.478H159.152V306.05ZM150.724 297.86H154.364V294.542H155.498V303.012H149.59V294.542H150.724V297.86ZM154.364 302.074V298.77H150.724V302.074H154.364ZM171.429 299.61V306.036H170.281V293.492H171.429V298.644H173.487V299.61H171.429ZM169.091 295.494V296.418H161.685V295.494H164.849V293.632H165.997V295.494H169.091ZM165.437 297.454C165.885 297.454 166.295 297.529 166.669 297.678C167.042 297.818 167.364 298.019 167.635 298.28C167.915 298.532 168.129 298.835 168.279 299.19C168.428 299.545 168.503 299.932 168.503 300.352C168.503 300.781 168.428 301.173 168.279 301.528C168.129 301.883 167.915 302.186 167.635 302.438C167.364 302.69 167.042 302.886 166.669 303.026C166.295 303.166 165.885 303.236 165.437 303.236C164.998 303.236 164.592 303.166 164.219 303.026C163.845 302.886 163.523 302.69 163.253 302.438C162.982 302.186 162.772 301.883 162.623 301.528C162.473 301.173 162.399 300.781 162.399 300.352C162.399 299.932 162.473 299.545 162.623 299.19C162.772 298.835 162.982 298.532 163.253 298.28C163.523 298.019 163.845 297.818 164.219 297.678C164.592 297.529 164.998 297.454 165.437 297.454ZM165.437 302.284C165.726 302.284 165.992 302.237 166.235 302.144C166.477 302.041 166.683 301.906 166.851 301.738C167.028 301.57 167.163 301.369 167.257 301.136C167.359 300.893 167.411 300.632 167.411 300.352C167.411 300.072 167.359 299.815 167.257 299.582C167.163 299.339 167.028 299.134 166.851 298.966C166.683 298.789 166.477 298.653 166.235 298.56C165.992 298.457 165.726 298.406 165.437 298.406C165.157 298.406 164.895 298.457 164.653 298.56C164.41 298.653 164.2 298.789 164.023 298.966C163.855 299.134 163.719 299.339 163.617 299.582C163.523 299.815 163.477 300.072 163.477 300.352C163.477 300.632 163.523 300.893 163.617 301.136C163.719 301.369 163.855 301.57 164.023 301.738C164.2 301.906 164.41 302.041 164.653 302.144C164.895 302.237 165.157 302.284 165.437 302.284ZM184.98 306.064H183.832V301.192H180.696C180.434 301.836 180.07 302.335 179.604 302.69C179.146 303.035 178.61 303.208 177.994 303.208C177.536 303.208 177.116 303.105 176.734 302.9C176.351 302.695 176.02 302.401 175.74 302.018C175.46 301.635 175.24 301.178 175.082 300.646C174.932 300.105 174.858 299.498 174.858 298.826C174.858 298.154 174.932 297.552 175.082 297.02C175.24 296.479 175.46 296.017 175.74 295.634C176.02 295.251 176.351 294.957 176.734 294.752C177.116 294.547 177.536 294.444 177.994 294.444C178.582 294.444 179.095 294.607 179.534 294.934C179.982 295.251 180.341 295.704 180.612 296.292H183.832V293.478H184.98V306.064ZM177.994 302.186C178.292 302.186 178.563 302.107 178.806 301.948C179.058 301.789 179.272 301.565 179.45 301.276C179.636 300.977 179.781 300.623 179.884 300.212C179.986 299.801 180.038 299.339 180.038 298.826C180.038 298.322 179.986 297.865 179.884 297.454C179.781 297.034 179.636 296.679 179.45 296.39C179.272 296.101 179.058 295.877 178.806 295.718C178.563 295.559 178.292 295.48 177.994 295.48C177.695 295.48 177.42 295.559 177.168 295.718C176.916 295.877 176.696 296.101 176.51 296.39C176.332 296.679 176.192 297.034 176.09 297.454C175.996 297.865 175.95 298.322 175.95 298.826C175.95 299.339 175.996 299.801 176.09 300.212C176.192 300.623 176.332 300.977 176.51 301.276C176.696 301.565 176.916 301.789 177.168 301.948C177.42 302.107 177.695 302.186 177.994 302.186ZM183.832 297.23H180.934C180.99 297.473 181.032 297.729 181.06 298C181.097 298.261 181.116 298.537 181.116 298.826C181.116 299.414 181.069 299.89 180.976 300.254H183.832V297.23ZM197.447 300.38C196.719 300.165 196.094 299.839 195.571 299.4C195.049 298.961 194.647 298.448 194.367 297.86C194.097 298.513 193.686 299.078 193.135 299.554C192.585 300.03 191.941 300.389 191.203 300.632L190.643 299.722C191.11 299.582 191.535 299.391 191.917 299.148C192.3 298.905 192.627 298.625 192.897 298.308C193.177 297.991 193.392 297.645 193.541 297.272C193.7 296.889 193.779 296.493 193.779 296.082V295.872H190.993V294.948H193.779V293.422H194.927V294.948H197.699V295.872H194.927V296.082C194.927 296.455 194.997 296.819 195.137 297.174C195.287 297.529 195.497 297.855 195.767 298.154C196.038 298.453 196.36 298.719 196.733 298.952C197.116 299.185 197.536 299.367 197.993 299.498L197.447 300.38ZM202.249 297.538H200.387V300.772H199.239V293.492H200.387V296.586H202.249V297.538ZM197.083 302.368C197.139 302.695 197.284 303.007 197.517 303.306C197.751 303.595 198.045 303.861 198.399 304.104C198.763 304.347 199.174 304.557 199.631 304.734C200.098 304.902 200.583 305.028 201.087 305.112L200.653 305.994C200.196 305.919 199.753 305.807 199.323 305.658C198.903 305.509 198.511 305.327 198.147 305.112C197.783 304.907 197.457 304.669 197.167 304.398C196.887 304.127 196.659 303.838 196.481 303.53C196.304 303.847 196.071 304.141 195.781 304.412C195.501 304.673 195.179 304.907 194.815 305.112C194.461 305.327 194.069 305.504 193.639 305.644C193.219 305.793 192.776 305.905 192.309 305.98L191.903 305.098C192.407 305.023 192.888 304.902 193.345 304.734C193.812 304.566 194.223 304.361 194.577 304.118C194.941 303.875 195.235 303.605 195.459 303.306C195.693 303.007 195.833 302.695 195.879 302.368H192.379V301.458H200.597V302.368H197.083ZM213.182 299.456V306.036H212.034V293.492H213.182V298.49H215.254V299.456H213.182ZM206.868 294.444C207.335 294.444 207.76 294.547 208.142 294.752C208.525 294.957 208.856 295.251 209.136 295.634C209.416 296.017 209.631 296.479 209.78 297.02C209.939 297.552 210.018 298.154 210.018 298.826C210.018 299.498 209.939 300.105 209.78 300.646C209.631 301.178 209.416 301.635 209.136 302.018C208.856 302.401 208.525 302.695 208.142 302.9C207.76 303.105 207.335 303.208 206.868 303.208C206.402 303.208 205.972 303.105 205.58 302.9C205.198 302.695 204.866 302.401 204.586 302.018C204.306 301.635 204.087 301.178 203.928 300.646C203.779 300.105 203.704 299.498 203.704 298.826C203.704 298.154 203.779 297.552 203.928 297.02C204.087 296.479 204.306 296.017 204.586 295.634C204.866 295.251 205.198 294.957 205.58 294.752C205.972 294.547 206.402 294.444 206.868 294.444ZM206.868 302.186C207.167 302.186 207.442 302.107 207.694 301.948C207.946 301.789 208.161 301.565 208.338 301.276C208.525 300.977 208.67 300.623 208.772 300.212C208.875 299.801 208.926 299.339 208.926 298.826C208.926 298.322 208.875 297.865 208.772 297.454C208.67 297.034 208.525 296.679 208.338 296.39C208.161 296.101 207.946 295.877 207.694 295.718C207.442 295.559 207.167 295.48 206.868 295.48C206.56 295.48 206.28 295.559 206.028 295.718C205.776 295.877 205.557 296.101 205.37 296.39C205.193 296.679 205.053 297.034 204.95 297.454C204.848 297.865 204.796 298.322 204.796 298.826C204.796 299.339 204.848 299.801 204.95 300.212C205.053 300.623 205.193 300.977 205.37 301.276C205.557 301.565 205.776 301.789 206.028 301.948C206.28 302.107 206.56 302.186 206.868 302.186ZM226.677 300.87H225.529V293.492H226.677V300.87ZM224.633 300.1C223.952 300.212 223.257 300.301 222.547 300.366C221.847 300.431 221.152 300.478 220.461 300.506C219.78 300.534 219.113 300.553 218.459 300.562C217.815 300.571 217.204 300.576 216.625 300.576L216.485 299.652C217.017 299.652 217.577 299.652 218.165 299.652C218.753 299.643 219.355 299.629 219.971 299.61V298.308H217.507V293.982H218.641V295.228H222.477V293.982H223.597V298.308H221.119V299.568C221.707 299.531 222.286 299.493 222.855 299.456C223.425 299.409 223.989 299.349 224.549 299.274L224.633 300.1ZM222.477 297.398V296.11H218.641V297.398H222.477ZM226.677 301.43V305.868H218.459V301.43H219.593V302.662H225.557V301.43H226.677ZM219.593 303.558V304.944H225.557V303.558H219.593ZM238.772 300.73V293.492H239.878V300.73H238.772ZM233.816 297.972C232.995 299.232 231.721 300.235 229.994 300.982L229.392 300.128C231.987 299.101 233.396 297.505 233.62 295.34H229.938V294.416H234.796C234.796 295.368 234.628 296.245 234.292 297.048H236.28V293.758H237.358V300.534H236.28V297.972H233.816ZM238.282 301.976C238.282 302.303 238.338 302.625 238.45 302.942C238.562 303.259 238.725 303.558 238.94 303.838C239.164 304.118 239.43 304.37 239.738 304.594C240.055 304.818 240.41 305 240.802 305.14L240.242 305.98C239.617 305.765 239.089 305.448 238.66 305.028C238.24 304.608 237.923 304.132 237.708 303.6C237.521 304.113 237.237 304.594 236.854 305.042C236.471 305.499 235.986 305.849 235.398 306.092C234.782 305.849 234.287 305.513 233.914 305.084C233.55 304.655 233.275 304.174 233.088 303.642C232.855 304.146 232.528 304.603 232.108 305.014C231.688 305.434 231.179 305.756 230.582 305.98L230.008 305.14C230.4 305 230.755 304.813 231.072 304.58C231.389 304.347 231.655 304.09 231.87 303.81C232.085 303.521 232.248 303.222 232.36 302.914C232.481 302.597 232.542 302.284 232.542 301.976V301.164H233.648V301.976C233.648 302.545 233.788 303.101 234.068 303.642C234.357 304.183 234.796 304.627 235.384 304.972C235.683 304.785 235.944 304.571 236.168 304.328C236.392 304.085 236.574 303.829 236.714 303.558C236.863 303.287 236.975 303.017 237.05 302.746C237.125 302.475 237.162 302.219 237.162 301.976V301.164H238.282V301.976ZM252.449 298.322C251.964 298.247 251.488 298.131 251.021 297.972C250.554 297.813 250.116 297.622 249.705 297.398C249.304 297.165 248.94 296.899 248.613 296.6C248.296 296.301 248.039 295.979 247.843 295.634C247.647 295.979 247.386 296.301 247.059 296.6C246.742 296.899 246.378 297.165 245.967 297.398C245.566 297.622 245.132 297.813 244.665 297.972C244.198 298.131 243.718 298.247 243.223 298.322L242.803 297.398C243.363 297.333 243.909 297.202 244.441 297.006C244.982 296.81 245.458 296.572 245.869 296.292C246.289 296.003 246.625 295.681 246.877 295.326C247.129 294.962 247.255 294.579 247.255 294.178V293.618H248.431V294.178C248.431 294.561 248.557 294.934 248.809 295.298C249.061 295.653 249.392 295.975 249.803 296.264C250.223 296.553 250.699 296.801 251.231 297.006C251.763 297.202 252.309 297.333 252.869 297.398L252.449 298.322ZM253.513 300.128H242.145V299.204H253.513V300.128ZM252.029 300.996V305.868H243.587V300.996H244.721V302.466H250.895V300.996H252.029ZM244.721 303.348V304.944H250.895V303.348H244.721ZM265.328 306.022H264.18V293.478H265.328V306.022ZM256.97 301.808C257.931 301.808 258.897 301.766 259.868 301.682C260.839 301.589 261.847 301.435 262.892 301.22L263.018 302.2C261.917 302.424 260.867 302.578 259.868 302.662C258.869 302.746 257.866 302.788 256.858 302.788H255.822V294.696H256.97V301.808ZM277.577 299.386V306.064H276.429V293.478H277.577V298.434H279.649V299.386H277.577ZM269.597 301.948C270.157 301.948 270.679 301.943 271.165 301.934C271.659 301.915 272.131 301.892 272.579 301.864C273.036 301.836 273.484 301.794 273.923 301.738C274.361 301.682 274.805 301.612 275.253 301.528L275.379 302.48C274.903 302.573 274.436 302.653 273.979 302.718C273.521 302.774 273.055 302.821 272.579 302.858C272.103 302.886 271.608 302.905 271.095 302.914C270.581 302.923 270.031 302.928 269.443 302.928H268.449V294.682H274.287V295.634H269.597V301.948ZM281.916 303.88V305.196H280.642V303.88H281.916Z" fill="#666666"/>
</svg>
