<svg width="28" height="28" viewBox="0 0 28 28" fill="none" xmlns="http://www.w3.org/2000/svg">
<path d="M15.6492 1C18.6596 1 21.5467 2.19593 23.6754 4.3247C25.8041 6.45347 27 9.3407 27 12.3512M16.2103 7.1658C17.4367 7.1658 18.6129 7.653 19.4801 8.52024C20.3473 9.38747 20.8344 10.5637 20.8344 11.7901M6.96194 4.0829L3.13159 5.04014C1.75975 5.38388 0.767097 6.62629 1.04763 8.01205C2.6815 16.0476 11.953 25.3194 19.9882 26.9518C21.3755 27.2339 22.6163 26.2428 22.96 24.8709L23.9157 21.0388L18.5208 17.9559L16.2087 20.2681C13.126 18.7267 9.27248 14.873 7.73109 11.7901L10.0447 9.47797L6.96194 4.0829Z" stroke="#808080" stroke-width="2" stroke-linecap="round" stroke-linejoin="round"/>
</svg>
