<svg width="26" height="26" viewBox="0 0 26 26" fill="none" xmlns="http://www.w3.org/2000/svg">
<mask id="mask0_255_50" style="mask-type:alpha" maskUnits="userSpaceOnUse" x="0" y="0" width="26" height="26">
<g clip-path="url(#clip0_255_50)">
<path fill-rule="evenodd" clip-rule="evenodd" d="M14.95 0C12.4488 0 10.4 2.0436 10.4 4.53726C10.4 4.90126 10.4442 5.25485 10.5264 5.59467L8.88316 6.35777L0.92378 2.66058C0.839845 2.62155 0.748542 2.60089 0.65598 2.6C0.570119 2.59921 0.484952 2.61544 0.405399 2.64775C0.325846 2.68006 0.253483 2.72781 0.19249 2.78825C0.131497 2.84869 0.0830829 2.92061 0.0500441 2.99986C0.0170052 3.07912 -3.63329e-06 3.16413 5.82149e-10 3.25L5.82149e-10 21.5254C2.07873e-05 21.6493 0.0354443 21.7706 0.102098 21.875C0.168752 21.9794 0.26386 22.0626 0.37622 22.1148L8.60938 25.9394C8.69697 25.9801 8.79254 26.0008 8.88914 26C8.98186 25.9992 9.07335 25.9787 9.15746 25.9397L17.1168 22.2422L25.0762 25.9394C25.1753 25.9854 25.2843 26.0057 25.3932 25.9984C25.5022 25.9912 25.6076 25.9566 25.6996 25.8978C25.7917 25.8391 25.8675 25.7581 25.92 25.6624C25.9725 25.5666 26 25.4592 26 25.35V7.07459C26 6.95071 25.9646 6.82941 25.8979 6.72498C25.8312 6.62056 25.7361 6.53735 25.6238 6.48517L19.3983 3.5932C18.9592 1.54804 17.1265 0 14.95 0ZM14.95 2.12628C16.2968 2.12628 17.3677 3.19436 17.3677 4.53726C17.3677 5.88015 16.2965 6.94797 14.95 6.94797C13.6032 6.94797 12.5323 5.88015 12.5323 4.53726C12.5323 3.19436 13.6035 2.12628 14.95 2.12628ZM1.3 4.26868L8.3915 7.56287L8.48796 24.4499L1.3 21.1099V4.26868ZM19.467 5.0583L24.7 7.48929V24.3313L17.5037 20.9885L17.4366 9.28381L18.9907 6.63961C19.0611 6.51221 19.1165 6.37675 19.1649 6.23791C19.3187 5.86025 19.4203 5.46339 19.467 5.0583ZM11.0154 6.80107C11.083 6.91703 11.1535 7.03065 11.2307 7.13985L14.3949 12.6089C14.8379 13.188 15.1325 13.078 15.5009 12.5785L16.6644 10.5986L16.7237 20.9908L9.26796 24.4548L9.17202 7.65725L11.0154 6.80107Z" fill="white"/>
</g>
</mask>
<g mask="url(#mask0_255_50)">
<rect x="-7.80078" y="-6.06665" width="49.4" height="39" fill="#808080"/>
</g>
<defs>
<clipPath id="clip0_255_50">
<rect width="26" height="26" fill="white"/>
</clipPath>
</defs>
</svg>
