<svg width="26" height="26" viewBox="0 0 26 26" fill="none" xmlns="http://www.w3.org/2000/svg">
<path fill-rule="evenodd" clip-rule="evenodd" d="M0.86748 0.00118843H23.3998L24.2673 0.92942V11.1495C23.7304 10.7175 23.1485 10.3538 22.5334 10.0656V1.85884H1.73385V18.5718H10.4009C10.4006 20.581 11.0086 22.536 12.1336 24.1435H5.20044V22.2859H10.4009V20.4282H0.86748L0 19.5012V0.928232L0.86748 0.00118843ZM19.0668 11.1435C18.1563 11.1435 17.2548 11.3357 16.4136 11.709C15.5724 12.0823 14.8081 12.6294 14.1643 13.3192C13.5205 14.009 13.0098 14.8279 12.6614 15.7291C12.313 16.6303 12.1336 17.5963 12.1336 18.5718C12.1336 19.5473 12.313 20.5132 12.6614 21.4144C13.0098 22.3157 13.5205 23.1345 14.1643 23.8243C14.8081 24.5141 15.5724 25.0613 16.4136 25.4346C17.2548 25.8079 18.1563 26 19.0668 26C20.9056 26 22.6691 25.2174 23.9693 23.8243C25.2695 22.4313 26 20.5419 26 18.5718C26 16.6017 25.2695 14.7123 23.9693 13.3192C22.6691 11.9262 20.9056 11.1435 19.0668 11.1435ZM19.0668 24.1435C17.6874 24.1435 16.3645 23.5564 15.3892 22.5114C14.4138 21.4664 13.8658 20.0491 13.8658 18.5712C13.8658 17.0933 14.4138 15.6759 15.3892 14.6309C16.3645 13.5859 17.6874 12.9988 19.0668 12.9988C20.4462 12.9988 21.7691 13.5859 22.7445 14.6309C23.7199 15.6759 24.2678 17.0933 24.2678 18.5712C24.2678 20.0491 23.7199 21.4664 22.7445 22.5114C21.7691 23.5564 20.4462 24.1435 19.0668 24.1435ZM21.9543 20.4211L19.566 17.8622L21.9543 15.3033L22.6721 16.0711L21.0014 17.8622L22.6721 19.6521L21.9543 20.4211ZM16.0162 17.9728L17.6868 19.7639L16.0162 21.5538L16.7339 22.3227L19.1223 19.7639L16.7339 17.205L16.0162 17.9728Z" fill="#808080"/>
</svg>
