<svg width="28" height="28" viewBox="0 0 28 28" fill="none" xmlns="http://www.w3.org/2000/svg">
<path d="M27 27L18.3333 18.3333M11.1111 15.4444V15.4589M1 11.1111C1 12.4389 1.26153 13.7537 1.76966 14.9805C2.27779 16.2072 3.02257 17.3218 3.96148 18.2607C4.90038 19.1996 6.01502 19.9444 7.24176 20.4526C8.46849 20.9607 9.7833 21.2222 11.1111 21.2222C12.4389 21.2222 13.7537 20.9607 14.9805 20.4526C16.2072 19.9444 17.3218 19.1996 18.2607 18.2607C19.1996 17.3218 19.9444 16.2072 20.4526 14.9805C20.9607 13.7537 21.2222 12.4389 21.2222 11.1111C21.2222 9.7833 20.9607 8.46849 20.4526 7.24176C19.9444 6.01502 19.1996 4.90038 18.2607 3.96148C17.3218 3.02257 16.2072 2.27779 14.9805 1.76966C13.7537 1.26153 12.4389 1 11.1111 1C9.7833 1 8.46849 1.26153 7.24176 1.76966C6.01502 2.27779 4.90038 3.02257 3.96148 3.96148C3.02257 4.90038 2.27779 6.01502 1.76966 7.24176C1.26153 8.46849 1 9.7833 1 11.1111Z" stroke="#808080" stroke-width="2" stroke-linecap="round" stroke-linejoin="round"/>
<path d="M11.1115 11.1112C11.4751 11.1113 11.8329 11.02 12.1519 10.8456C12.4709 10.6713 12.7409 10.4194 12.937 10.1133C13.1331 9.80711 13.2491 9.45654 13.2741 9.09384C13.2992 8.73113 13.2326 8.36795 13.0804 8.03775C12.9283 7.70755 12.6955 7.42095 12.4034 7.20434C12.1114 6.98773 11.7696 6.84809 11.4095 6.79827C11.0493 6.74845 10.6825 6.79006 10.3426 6.91926C10.0028 7.04847 9.70092 7.26111 9.46484 7.53761" stroke="#808080" stroke-width="2" stroke-linecap="round" stroke-linejoin="round"/>
</svg>
